<?xml version="1.0" encoding="utf-8"?>
<!-- Generator: Adobe Illustrator 26.5.0, SVG Export Plug-In . SVG Version: 6.00 Build 0)  -->
<svg version="1.1" id="Layer_1" xmlns="http://www.w3.org/2000/svg" xmlns:xlink="http://www.w3.org/1999/xlink" x="0px" y="0px"
	 viewBox="0 0 800 800" style="enable-background:new 0 0 800 800;" xml:space="preserve">
<style type="text/css">
	.st0{fill:#FFFFFF;}
</style>
<g>
	<path d="M676,726H124c-27.61,0-50-22.39-50-50V124c0-27.61,22.39-50,50-50h552c27.61,0,50,22.39,50,50v552
		C726,703.61,703.61,726,676,726z"/>
</g>
<path class="st0" d="M348.23,476.66l-5.89-3.18c-0.93-0.49-1.73-1.13-2.42-1.85l-23.51,62.76l-12.46-86.49l305.92-205.6
	L193.05,404.36c-1.8,0.71-2.94,2.35-2.91,4.15c0.03,1.8,1.24,3.4,3.06,4.05l101.2,36.41l15.15,105.17c0.3,2.04,2.08,3.63,4.3,3.83
	c0.16,0.01,0.32,0.02,0.48,0.02c1.23,0,2.39-0.43,3.25-1.17l70.39-58.76l-8.71-4.7L348.23,476.66z M347.2,465.83l121.34,65.37
	c2.15,1.15,4.49,1.7,6.77,1.7c5.52,0,10.8-3.14,12.76-8.38l121.8-282.22L347.2,465.83z"/>
</svg>
